<?xml version="1.0" encoding="utf-8"?>
<svg viewBox="0 0 32 32" xmlns="http://www.w3.org/2000/svg">
  <path d="M 23.964 11.575 C 24.19 11.862 26.641 15.067 27.31 16.006 C 28.684 18.426 29.661 21.145 29.844 24.019 C 29.968 25.987 29.922 27.994 29.918 29.921 L 25.148 29.9 C 25.157 29.788 25.124 26.31 25.051 24.749 C 24.986 23.375 24.504 21.613 23.949 20.338 C 23.902 20.178 20.973 16.041 20.861 15.921 C 20.778 15.832 19.209 14.145 18.593 13.385 C 17.72 12.301 16.789 11.365 15.941 10.223 C 16 10.053 18.497 3.34 18.613 3.908 C 19.011 5.844 19.931 7.258 21.185 8.624" style="fill: rgb(186, 138, 241);" transform="matrix(0.9999999999999999, 0, 0, 0.9999999999999999, 0, -1.7763568394002505e-15)"/>
  <path d="M 4.258 15.459 C 2.908 13.013 2.193 10.327 2.092 7.454 C 2.029 5.654 2.081 3.849 2.081 2 L 6.802 2 C 6.802 2.174 6.849 5.956 6.989 7.659 C 7.07 8.642 7.39 10.179 7.672 10.858 C 7.799 11.164 7.954 11.432 8.103 11.718 C 8.674 12.624 10.508 15.308 10.871 15.803 C 10.962 15.873 14.974 20.402 15.996 21.703 C 15.984 21.817 13.314 28.034 13.314 28.034 C 13.307 27.98 13.301 27.79 13.206 27.493 C 13.11 27.25 13.009 27.008 12.919 26.762 C 12.431 25.403 11.656 24.262 10.738 23.247 C 9.921 22.344 8.976 21.362 8.133 20.492 C 8.061 20.418 5.358 17.37 4.553 16.051" style="fill-rule: nonzero; fill: rgb(177, 124, 237);" transform="matrix(0.9999999999999999, 0, 0, 0.9999999999999999, 0, -1.7763568394002505e-15)"/>
  <path d="M 23.955 11.575 C 23.942 11.56 24.142 11.244 24.212 11.075 C 24.616 10.1 24.827 9.019 24.936 7.965 C 25.107 6.297 25.183 2.349 25.183 2.002 L 30 2.002 C 30 2.394 29.936 6.973 29.761 8.856 C 29.548 11.145 28.801 13.262 27.722 15.225 C 27.586 15.475 27.483 15.717 27.312 16.013" style="fill: rgb(115, 117, 247);" transform="matrix(0.9999999999999999, 0, 0, 0.9999999999999999, 0, -1.7763568394002505e-15)"/>
  <path d="M 4.538 16.02 C 5.218 17.129 7.89 20.216 7.936 20.27 C 7.514 21.361 7.481 21.389 7.158 22.61 C 6.854 23.755 6.746 25.192 6.737 25.667 C 6.711 26.878 6.697 29.018 6.71 29.9 L 2 29.9 C 2.017 29.126 2.039 26.805 2.039 25.182 C 2.039 22.489 2.677 19.922 3.781 17.519" style="fill: rgb(93, 95, 228);" transform="matrix(0.9999999999999999, 0, 0, 0.9999999999999999, 0, -1.7763568394002505e-15)"/>
  <path d="M 20.868 15.898 C 22.687 18.251 24.048 20.457 23.953 20.299 C 23.681 20.58 21.1 23.418 20.166 24.646 C 19.017 26.159 18.633 28.084 18.603 27.983 C 18.566 27.857 16.224 22.185 16.026 21.701" style="fill: rgb(115, 117, 247);" transform="matrix(0.9999999999999999, 0, 0, 0.9999999999999999, 0, -1.7763568394002505e-15)"/>
  <path d="M 16.025 21.698 C 16.229 22.153 18.625 27.861 18.606 27.99 C 18.522 28.54 18.447 28.995 18.336 29.54 C 18.257 29.928 18.1 29.921 17.86 29.919 C 16.739 29.908 14.205 29.926 14.057 29.949 C 13.821 29.87 13.647 29.902 13.533 29.583 C 13.419 29.264 13.318 28.083 13.318 28.021 C 13.346 27.965 15.851 22.024 15.992 21.702" style="paint-order: fill; fill: rgb(130, 109, 222);" transform="matrix(0.9999999999999999, 0, 0, 0.9999999999999999, 0, -1.7763568394002505e-15)"/>
  <path d="M 10.797 8.192 C 12.122 6.289 13.222 4.623 13.328 3.939 C 13.406 4.128 15.906 10.185 15.908 10.226 C 15.908 10.226 11.041 15.842 10.95 15.893 C 10.576 15.497 8.675 12.626 8.104 11.721" style="fill: rgb(93, 95, 228);" transform="matrix(0.9999999999999999, 0, 0, 0.9999999999999999, 0, -1.7763568394002505e-15)"/>
  <path d="M 16.066 1.977 C 16.271 2.432 18.667 8.139 18.648 8.269 C 18.563 8.819 18.488 9.274 18.377 9.819 C 18.298 10.207 18.142 10.2 17.901 10.197 L 14.098 10.228 C 14.098 10.228 13.688 10.181 13.574 9.862 C 13.46 9.543 13.36 8.362 13.36 8.3 C 13.387 8.244 15.892 2.303 16.033 1.981" style="paint-order: fill; fill: rgb(130, 109, 222);" transform="matrix(-1, 0, 0, -1, 32.008052825928, 12.204996109009)"/>
</svg>