<?xml version="1.0" encoding="utf-8"?>
<svg viewBox="0 0 32 32" xmlns="http://www.w3.org/2000/svg">
  <path d="M 23.964 11.598 C 24.19 11.885 26.641 15.09 27.31 16.029 C 28.684 18.449 29.661 21.168 29.844 24.042 C 29.968 26.01 29.922 28.017 29.918 29.944 L 25.148 29.923 C 25.157 29.811 25.124 26.333 25.051 24.772 C 24.986 23.398 24.504 21.636 23.949 20.361 C 23.902 20.201 20.786 16.09 20.861 15.944 C 20.971 15.731 17.017 11.266 15.972 10.251 C 16.031 10.081 18.497 3.363 18.613 3.931 C 19.011 5.867 19.931 7.281 21.185 8.647" style="fill: rgb(185, 138, 238);" transform="matrix(1, 0, 0, 1, 1.7763568394002505e-15, 0)"/>
  <path d="M 4.258 15.482 C 2.908 13.036 2.193 10.35 2.092 7.477 C 2.029 5.677 2.081 3.872 2.081 2.023 L 6.802 2.023 C 6.802 2.197 6.849 5.979 6.989 7.682 C 7.07 8.665 7.39 10.202 7.672 10.881 C 7.799 11.187 7.954 11.455 8.103 11.741 C 8.674 12.647 10.508 15.331 10.871 15.826 C 10.91 16.044 14.87 20.714 15.993 21.726 C 15.981 21.84 13.32 28.058 13.32 28.058 C 13.313 28.004 13.301 27.813 13.206 27.516 C 13.11 27.273 13.009 27.031 12.919 26.785 C 12.431 25.426 11.656 24.285 10.738 23.27 C 9.921 22.367 8.976 21.385 8.133 20.515 C 8.061 20.441 5.358 17.393 4.553 16.074" style="fill-rule: nonzero; fill: rgb(185, 138, 238);" transform="matrix(1, 0, 0, 1, 1.7763568394002505e-15, 0)"/>
  <path d="M 23.955 11.598 C 23.942 11.583 24.142 11.267 24.212 11.098 C 24.616 10.123 24.827 9.042 24.936 7.988 C 25.107 6.32 25.183 2.372 25.183 2.025 L 30 2.025 C 30 2.417 29.936 6.996 29.761 8.879 C 29.548 11.168 28.801 13.285 27.722 15.248 C 27.586 15.498 27.483 15.74 27.312 16.036" style="fill: rgb(110, 112, 246);" transform="matrix(1, 0, 0, 1, 1.7763568394002505e-15, 0)"/>
  <path d="M 4.538 16.043 C 5.218 17.152 7.89 20.239 7.936 20.293 C 7.514 21.384 7.481 21.412 7.158 22.633 C 6.854 23.778 6.746 25.215 6.737 25.69 C 6.711 26.901 6.697 29.041 6.71 29.923 L 2 29.923 C 2.017 29.149 2.039 26.828 2.039 25.205 C 2.039 22.512 2.677 19.945 3.781 17.542" style="fill: rgb(110, 112, 246);" transform="matrix(1, 0, 0, 1, 1.7763568394002505e-15, 0)"/>
  <path d="M 20.868 15.921 C 22.687 18.274 24.048 20.48 23.953 20.322 C 23.681 20.603 21.1 23.441 20.166 24.669 C 19.017 26.182 18.574 28.139 18.602 28.03 C 18.635 27.903 16.225 22.21 16.027 21.726" style="fill: rgb(110, 112, 246);" transform="matrix(1, 0, 0, 1, 1.7763568394002505e-15, 0)"/>
  <path d="M 16.027 21.725 C 16.231 22.18 18.625 27.884 18.606 28.013 C 18.522 28.563 18.447 29.018 18.336 29.563 C 18.257 29.951 18.1 29.944 17.86 29.942 C 16.739 29.931 14.205 29.949 14.057 29.972 C 13.821 29.893 13.647 29.925 13.533 29.606 C 13.419 29.287 13.318 28.106 13.318 28.044 C 13.346 27.988 15.851 22.047 15.992 21.725" style="paint-order: fill; fill: rgb(136, 116, 232);" transform="matrix(1, 0, 0, 1, 1.7763568394002505e-15, 0)"/>
  <path d="M 10.797 8.215 C 12.122 6.312 13.254 4.643 13.36 3.959 C 13.438 4.148 15.94 10.21 15.942 10.251 C 15.878 10.125 10.93 15.645 10.95 15.916 C 10.576 15.52 8.675 12.649 8.104 11.744" style="fill: rgb(110, 112, 246);" transform="matrix(1, 0, 0, 1, 1.7763568394002505e-15, 0)"/>
  <path d="M 16.066 2 C 16.271 2.455 18.667 8.162 18.648 8.292 C 18.563 8.842 18.488 9.297 18.377 9.842 C 18.298 10.23 18.142 10.223 17.901 10.22 L 14.098 10.251 C 14.098 10.251 13.688 10.204 13.574 9.885 C 13.46 9.566 13.36 8.385 13.36 8.323 C 13.387 8.267 15.895 2.322 16.036 2" style="paint-order: fill; fill: rgb(161, 116, 232);" transform="matrix(-1, 0, 0, -1, 32.007858276367, 12.251014709473)"/>
</svg>