<svg version="1.1" id="Layer_1" xmlns="http://www.w3.org/2000/svg" xmlns:xlink="http://www.w3.org/1999/xlink" x="0px"
    y="0px" width="100%" viewBox="224 424 1600 560" xml:space="preserve">
2048 1408
    <path fill="#BDE5FC" opacity="1.000000" stroke="none" d="
M969.809570,567.189026
	C972.050415,566.948914 974.102234,566.977234 976.926270,567.315063
	C992.547424,567.721008 1007.396362,567.827148 1022.245605,567.877747
	C1022.828918,567.879761 1023.414062,567.351624 1023.998352,567.070496
	C1024.751709,567.008362 1025.505005,566.946228 1026.689331,567.360352
	C1027.746460,571.054321 1028.916138,574.271484 1028.919678,577.489868
	C1029.018555,667.986267 1028.980469,758.482666 1029.042603,848.979126
	C1029.046875,855.109802 1029.681885,861.239197 1029.984741,867.371033
	C1030.165405,871.028748 1028.544800,872.933105 1024.711914,873.077576
	C1023.452698,873.125000 1022.229065,874.116638 1020.989197,874.676575
	C1004.638855,874.781799 988.288574,874.887024 971.477661,875.071533
	C970.424927,873.703796 969.321167,872.258972 969.315369,870.809631
	C969.165588,833.714294 969.130371,796.618469 969.076111,759.522766
	C969.072266,756.902161 969.075562,754.281555 969.075562,751.378479
	C924.501831,751.378479 880.470337,751.378479 835.587158,751.310547
	C834.156250,753.132324 833.077026,755.020630 833.071777,756.911926
	C832.971436,792.903625 832.999695,828.895691 832.995972,864.887634
	C832.995178,872.559143 832.545044,872.992493 824.683716,872.996521
	C815.352478,873.001343 806.017456,872.847778 796.692078,873.082764
	C793.452881,873.164307 790.237793,874.200500 787.011658,874.800720
	C786.258240,874.852539 785.504761,874.904358 784.322388,874.615845
	C783.258789,874.443481 782.624146,874.611511 781.989563,874.779480
	C780.924561,874.831177 779.859619,874.882874 778.294678,874.525513
	C776.287048,873.740356 774.779358,873.364319 773.271667,872.988220
	C773.180664,867.967224 773.089661,862.946289 773.441528,857.333252
	C775.281006,853.051514 776.447693,849.377014 773.180420,845.992798
	C773.126587,824.361816 773.032410,802.730774 773.026550,781.099792
	C773.007874,712.697510 773.022156,644.295227 773.283569,575.268188
	C773.434448,574.102478 773.325378,573.561646 773.216309,573.020752
	C773.173645,571.606750 773.130920,570.192749 773.353516,568.295288
	C773.783752,567.678040 773.903381,567.511597 773.977661,567.312561
	C774.737732,567.212463 775.497803,567.112366 776.737732,567.211548
	C777.217590,567.410767 777.650208,567.466919 777.650208,567.466919
	C777.650208,567.466919 777.993347,567.165527 777.993347,567.165527
	C779.070801,567.113586 780.148254,567.061646 781.963440,567.320496
	C797.302856,568.087524 811.903320,568.591492 826.506836,568.978210
	C832.984436,569.149780 832.995667,569.042358 832.996155,575.605957
	C832.999084,612.906433 832.958252,650.206970 833.101379,687.506897
	C833.109497,689.610779 834.616760,691.708862 835.592529,693.782715
	C835.758789,693.755798 835.993408,693.997437 836.313599,694.263367
	C837.440796,694.684509 838.247864,694.975037 839.054993,694.975464
	C880.985474,694.998901 922.915955,695.009521 964.846375,694.945923
	C966.199768,694.943848 967.551941,694.154846 968.931152,693.281433
	C968.966064,686.223267 968.974365,679.616272 968.982788,673.009338
	C969.067261,667.973938 969.151733,662.938599 969.240356,656.994873
	C969.170349,651.058777 969.096252,646.030945 969.022095,641.003174
	C969.099915,638.622803 969.177795,636.242493 969.263672,632.975586
	C969.170471,624.394043 969.069336,616.699036 968.968140,609.004028
	C969.037659,603.973389 969.107117,598.942810 969.185059,593.088989
	C969.116821,591.510925 969.040161,590.756165 968.963501,590.001343
	C969.024536,589.246155 969.085571,588.490906 969.150574,586.927673
	C969.085388,583.413330 969.016174,580.707092 968.946960,578.000793
	C969.025085,576.928467 969.103149,575.856201 969.200317,574.002441
	C969.161438,572.148621 969.103516,571.076294 969.045532,570.003967
	C969.237244,569.155090 969.428955,568.306274 969.809570,567.189026
z" />
    <path fill="#AA69F8" opacity="1.000000" stroke="none" d="
M605.198853,667.836182
	C606.071777,668.550110 606.944702,669.264038 608.204956,670.547241
	C615.097839,677.942871 621.920898,684.498291 628.032349,691.660950
	C636.600281,701.702515 644.638550,712.196045 652.903381,722.496216
	C669.843079,749.033813 680.784912,777.771851 683.035034,809.286682
	C684.575439,830.860657 684.837097,852.526001 685.687439,874.590454
	C665.246155,874.590454 645.683411,874.590454 625.254883,874.590454
	C625.254883,872.534546 625.292114,870.622192 625.248962,868.711609
	C624.861755,851.564697 624.847656,834.397827 623.946777,817.277649
	C623.154358,802.218994 618.881042,787.836670 613.081787,773.207520
	C612.498901,771.469116 612.180969,770.286804 611.484009,769.403564
	C599.744019,754.526184 588.010010,739.642944 576.098083,724.903748
	C574.897766,723.418518 572.557617,722.854492 570.799072,721.513672
	C569.946289,719.684143 569.278687,717.971619 568.096802,716.761292
	C560.219421,708.694092 551.926697,701.011719 544.353882,692.673096
	C533.571838,680.800842 523.292114,668.472473 512.839417,655.950806
	C513.570618,654.078735 514.136719,652.521240 514.970703,651.123474
	C519.281006,643.899170 524.210144,636.986084 527.904541,629.463989
	C536.643311,611.671326 543.627930,593.360657 541.102295,572.826538
	C540.717041,569.694763 539.585876,568.965088 536.781555,568.976135
	C520.155823,569.041443 503.529480,569.045837 486.904083,568.946533
	C483.861633,568.928406 482.994263,570.080261 482.808289,573.045166
	C482.596588,576.420044 481.529846,579.741333 480.834717,583.085876
	C480.842133,582.549988 480.849518,582.014038 481.011200,580.898804
	C481.198151,580.055847 481.185272,579.794495 481.126892,579.535400
	C481.618286,575.791748 482.109680,572.048035 482.657806,567.872131
	C502.428497,567.872131 521.999329,567.872131 541.815552,567.872131
	C542.748596,574.145813 543.276611,580.601196 544.716125,586.846558
	C549.608032,608.070862 561.115112,625.499756 576.572205,640.478271
	C585.877747,649.495605 595.380798,658.309082 604.990479,667.533203
	C605.185974,667.852295 605.198853,667.836182 605.198853,667.836182
z" />
    <path fill="#A44FF7" opacity="1.000000" stroke="none" d="
M370.942444,721.954529
	C370.062653,719.677979 369.516510,717.194580 368.252563,715.156250
	C351.613831,688.324402 342.165039,659.150085 340.912598,627.648010
	C340.127899,607.911194 340.766510,588.117859 340.766510,567.847473
	C359.476990,567.847473 378.847870,567.847473 398.984100,567.847473
	C398.984100,569.755371 398.926392,571.674500 398.993042,573.589294
	C399.646698,592.369202 399.556183,611.219238 401.283630,629.900696
	C402.279785,640.673767 406.222809,651.174377 408.940247,662.160645
	C409.041046,662.523621 409.046783,662.406433 409.046783,662.406433
	C409.272491,663.024658 409.498199,663.642883 409.701355,664.971680
	C411.431519,668.479797 413.184296,671.277344 415.008057,674.412598
	C422.045319,684.342834 428.874359,694.039429 436.031494,703.487366
	C440.076233,708.826782 444.660400,713.757507 449.148254,719.181763
	C450.252838,719.962219 451.210785,720.433167 452.115936,720.916504
	C452.063141,720.928955 452.052368,720.821045 452.162354,721.064392
	C452.541077,721.534058 452.809845,721.760376 453.043701,721.988098
	C453.008759,721.989441 453.013855,721.919739 453.141785,722.143188
	C453.540100,722.573181 453.810516,722.779785 454.046021,722.988647
	C454.011108,722.991028 454.014221,722.921204 454.141663,723.145508
	C454.541290,723.574707 454.813507,723.779663 455.049377,723.985352
	C455.013031,723.986023 455.014618,723.913269 455.142395,724.138184
	C455.541748,724.570496 455.813354,724.777832 456.049133,724.986023
	C456.013275,724.986816 456.016022,724.915222 456.137909,725.139282
	C456.523621,725.572998 456.787476,725.782532 457.023376,725.996704
	C456.995392,726.001404 457.007751,725.946045 457.139130,726.163269
	C457.538361,726.583130 457.806183,726.785767 458.040466,726.992126
	C458.006958,726.995911 458.011292,726.928528 458.142334,727.150208
	C458.545990,727.576111 458.818542,727.780334 459.052490,727.985535
	C459.013855,727.986511 459.014893,727.909180 459.146729,728.135803
	C459.557465,728.568176 459.836365,728.773865 460.067505,728.981079
	C460.019775,728.982605 460.020691,728.887024 460.151917,729.119873
	C460.570923,729.557129 460.858643,729.761597 461.087708,729.968262
	C461.029053,729.970459 461.031036,729.853088 461.164185,730.092529
	C461.594879,730.536621 461.892456,730.741211 462.119202,730.949036
	C462.048401,730.952332 462.052032,730.810547 462.181610,731.060242
	C462.622345,731.509644 462.933472,731.709412 463.163025,731.913208
	C463.081390,731.917358 463.090424,731.754150 463.205200,732.016357
	C463.632874,732.484802 463.945801,732.690979 464.171143,732.909546
	C464.083588,732.921936 464.075714,732.745239 464.218506,733.018555
	C464.707031,733.503906 465.052765,733.715881 465.698669,734.041931
	C467.918213,735.991699 469.946533,737.727356 471.739563,739.679077
	C484.639618,753.721436 497.491974,767.807556 510.081757,782.071289
	C511.339935,787.314331 508.573120,791.079102 506.064758,794.953247
	C503.106659,799.521973 499.497162,803.843506 497.468109,808.803162
	C493.112518,819.449463 489.740204,830.493774 485.646210,841.253723
	C484.194458,845.069397 481.816254,848.532471 479.663025,852.136597
	C479.465027,852.116577 479.067505,852.134827 479.067505,852.134827
	C478.987427,851.550232 478.907379,850.965637 478.919067,849.748352
	C478.647156,848.538025 478.283539,847.960388 477.919922,847.382751
	C476.740112,844.709167 475.487244,842.065186 474.392578,839.357178
	C468.368591,824.455139 458.824982,811.950928 447.500244,800.817017
	C437.432404,790.918823 426.924286,781.466248 416.513702,771.922607
	C415.627991,771.110718 414.011475,771.096008 412.394775,770.536682
	C410.994873,768.391602 410.341156,766.002075 408.810272,764.516174
	C396.246887,752.321777 384.687225,739.299805 374.776611,724.832153
	C373.921234,723.583435 372.240021,722.900391 370.942444,721.954529
z" />
    <path fill="#6568F7" opacity="1.000000" stroke="none" d="
M652.884094,722.109070
	C644.638550,712.196045 636.600281,701.702515 628.032349,691.660950
	C621.920898,684.498291 615.097839,677.942871 608.448242,670.896729
	C611.783447,672.307007 612.943787,669.660217 613.601501,667.341675
	C616.810852,656.028503 621.194885,644.812744 622.531433,633.258118
	C624.648376,614.957031 624.693237,596.414856 625.559814,577.972046
	C625.707642,574.825500 625.580688,571.666077 625.580688,567.871277
	C645.351746,567.871277 664.865234,567.871277 684.972656,567.871277
	C684.972656,572.167908 685.121277,576.461426 684.947571,580.741821
	C684.104492,601.511719 684.175354,622.382690 682.019714,643.019043
	C679.396423,668.132385 670.182556,691.327515 656.891968,712.855896
	C655.200562,715.595764 654.190552,718.756287 652.884094,722.109070
z" />
    <path fill="#5D50F6" opacity="1.000000" stroke="none" d="
M370.669312,722.160217
	C372.240021,722.900391 373.921234,723.583435 374.776611,724.832153
	C384.687225,739.299805 396.246887,752.321777 408.810272,764.516174
	C410.341156,766.002075 410.994873,768.391602 412.108215,770.748413
	C412.161346,771.134399 412.097839,771.117188 411.943237,771.152710
	C411.705963,771.267578 411.538818,771.381409 411.554749,771.420410
	C411.637421,771.622803 411.766754,771.806152 411.879822,771.996094
	C408.266235,784.834839 404.652649,797.673645 400.681641,811.140137
	C399.570984,816.963928 398.293365,822.147278 398.167084,827.358582
	C397.845276,840.639099 398.039001,853.932190 398.023590,867.220215
	C398.015625,874.113892 398.012543,874.064636 390.880859,874.123657
	C376.665802,874.241333 362.451294,874.418762 348.236542,874.571472
	C346.730194,874.655396 345.223816,874.739319 343.141815,874.371887
	C342.047394,871.904968 341.101593,869.893982 341.079346,867.872864
	C340.938324,855.052246 341.039215,842.229187 340.964172,829.407471
	C340.949799,826.952148 340.507812,824.499268 340.263123,822.045288
	C341.563751,792.533630 348.119141,764.355164 361.731750,737.997986
	C364.464355,732.706970 367.500214,727.572510 370.669312,722.160217
z" />
    <path fill="#6568F7" opacity="1.000000" stroke="none" d="
M570.746399,721.862915
	C572.557617,722.854492 574.897766,723.418518 576.098083,724.903748
	C588.010010,739.642944 599.744019,754.526184 611.484009,769.403564
	C612.180969,770.286804 612.498901,771.469116 613.018921,772.801147
	C612.141846,771.748962 611.239075,770.407898 610.081299,768.687866
	C606.720337,771.765320 603.405212,774.501221 600.436096,777.571655
	C588.092529,790.336182 575.246948,802.683533 563.730164,816.161926
	C549.565552,832.739197 543.784546,852.989929 541.994080,874.860229
	C524.572449,874.860229 507.324341,874.860229 489.974182,874.566406
	C491.361938,874.192322 492.851624,874.044250 494.341522,874.042236
	C508.154083,874.023438 521.966614,874.033752 535.779175,874.025391
	C538.138428,874.023926 540.446045,874.186157 541.019104,870.868591
	C542.061768,864.832581 543.468445,858.859070 544.495605,852.820801
	C544.737427,851.399353 544.476074,848.757935 543.762512,848.488464
	C538.228394,846.398804 538.094238,841.242554 537.316895,836.929871
	C534.802124,822.976746 528.797180,810.607483 521.502441,798.660828
	C518.601746,793.910400 516.389221,788.739807 513.943909,783.432007
	C515.081299,781.622559 515.983826,779.996582 517.218323,778.682495
	C535.034851,759.718079 552.895996,740.795532 570.746399,721.862915
z" />
    <path fill="#8254F5" opacity="1.000000" stroke="none" d="
M513.863464,783.760498
	C516.389221,788.739807 518.601746,793.910400 521.502441,798.660828
	C528.797180,810.607483 534.802124,822.976746 537.316895,836.929871
	C538.094238,841.242554 538.228394,846.398804 543.762512,848.488464
	C544.476074,848.757935 544.737427,851.399353 544.495605,852.820801
	C543.468445,858.859070 542.061768,864.832581 541.019104,870.868591
	C540.446045,874.186157 538.138428,874.023926 535.779175,874.025391
	C521.966614,874.033752 508.154083,874.023438 494.341522,874.042236
	C492.851624,874.044250 491.361938,874.192322 489.528564,874.460388
	C487.385590,874.659973 485.586151,874.671814 483.375549,874.118530
	C482.308655,869.410156 481.652954,865.267029 480.997253,861.123840
	C480.880066,860.758850 480.762848,860.393799 480.746368,859.376587
	C480.427948,857.244141 480.008789,855.763916 479.589630,854.283630
	C479.453888,854.063293 479.318115,853.842896 479.318542,853.156738
	C479.639648,852.550415 479.775055,852.372314 479.860992,852.156555
	C481.816254,848.532471 484.194458,845.069397 485.646210,841.253723
	C489.740204,830.493774 493.112518,819.449463 497.468109,808.803162
	C499.497162,803.843506 503.106659,799.521973 506.064758,794.953247
	C508.573120,791.079102 511.339935,787.314331 510.324005,782.185913
	C511.850464,782.659546 512.856995,783.210022 513.863464,783.760498
z" />
    <path fill="#8254F5" opacity="1.000000" stroke="none" d="
M480.773193,583.150146
	C481.529846,579.741333 482.596588,576.420044 482.808289,573.045166
	C482.994263,570.080261 483.861633,568.928406 486.904083,568.946533
	C503.529480,569.045837 520.155823,569.041443 536.781555,568.976135
	C539.585876,568.965088 540.717041,569.694763 541.102295,572.826538
	C543.627930,593.360657 536.643311,611.671326 527.904541,629.463989
	C524.210144,636.986084 519.281006,643.899170 514.970703,651.123474
	C514.136719,652.521240 513.570618,654.078735 512.646790,655.983093
	C512.120972,656.537415 511.893555,656.466125 511.302551,656.143555
	C510.590424,656.070007 510.306183,656.042542 509.775146,655.782593
	C508.987122,654.528931 508.657532,653.292908 507.872406,652.519348
	C498.092010,642.882568 493.523895,630.470520 489.505463,617.829895
	C487.258057,610.760437 485.489685,603.533508 483.669891,596.335938
	C482.948792,593.483765 481.450104,593.023438 479.067871,593.700806
	C479.670929,589.994629 480.230743,586.684265 480.790527,583.373840
	C480.790527,583.373840 480.711670,583.214355 480.773193,583.150146
z" />
    <path fill="#BFE3F7" opacity="1.000000" stroke="none" d="
M787.472900,874.885010
	C790.237793,874.200500 793.452881,873.164307 796.692078,873.082764
	C806.017456,872.847778 815.352478,873.001343 824.683716,872.996521
	C832.545044,872.992493 832.995178,872.559143 832.995972,864.887634
	C832.999695,828.895691 832.971436,792.903625 833.071777,756.911926
	C833.077026,755.020630 834.156250,753.132324 835.165833,751.210632
	C835.419312,753.654114 835.091736,756.129272 835.088135,758.605042
	C835.034119,795.398315 835.023071,832.191711 835.002014,868.985046
	C835.000977,870.788757 835.001892,872.592468 835.001892,874.969177
	C819.103760,874.969177 803.518982,874.969177 787.472900,874.885010
z" />
    <path fill="#BFE3F7" opacity="1.000000" stroke="none" d="
M835.426270,693.809631
	C834.616760,691.708862 833.109497,689.610779 833.101379,687.506897
	C832.958252,650.206970 832.999084,612.906433 832.996155,575.605957
	C832.995667,569.042358 832.984436,569.149780 826.506836,568.978210
	C811.903320,568.591492 797.302856,568.087524 782.361572,567.400024
	C799.485413,567.168762 816.948853,567.168762 835.155701,567.168762
	C835.155701,608.550537 835.155701,649.810730 835.192261,691.832275
	C835.294556,692.998901 835.360413,693.404297 835.426270,693.809631
z" />
    <path fill="#6568F7" opacity="1.000000" stroke="none" d="
M480.517151,583.648315
	C480.230743,586.684265 479.670929,589.994629 479.059113,594.104248
	C477.445862,598.808899 475.963776,602.748230 474.310303,606.614258
	C464.834686,628.769958 447.003296,644.010864 430.051727,659.972656
	C425.035126,664.696350 419.976471,669.375427 414.937103,674.074951
	C413.184296,671.277344 411.431519,668.479797 409.794495,665.456543
	C411.069702,667.180115 412.229126,669.129272 413.830231,671.820923
	C420.193848,666.090942 426.240540,660.764893 432.155701,655.296570
	C446.338135,642.185486 460.816345,629.162598 469.760406,611.715454
	C474.248444,602.960571 476.810638,593.218384 480.517151,583.648315
z" />
    <path fill="#8254F5" opacity="1.000000" stroke="none" d="
M340.171326,822.504639
	C340.507812,824.499268 340.949799,826.952148 340.964172,829.407471
	C341.039215,842.229187 340.938324,855.052246 341.079346,867.872864
	C341.101593,869.893982 342.047394,871.904968 342.705780,874.239990
	C339.609650,875.341431 339.819000,873.137634 339.829895,871.090210
	C339.915070,855.048157 339.996735,839.006042 340.171326,822.504639
z" />

    <path fill="#6568F7" opacity="1.000000" stroke="none" d="
M480.926514,861.453979
	C481.652954,865.267029 482.308655,869.410156 482.958405,873.955139
	C482.253540,870.166016 481.554626,865.975098 480.926514,861.453979
z" />
    <path fill="#BFE3F7" opacity="1.000000" stroke="none" d="
M773.094849,846.444885
	C776.447693,849.377014 775.281006,853.051514 773.522583,856.872803
	C773.110352,853.635315 773.059814,850.266113 773.094849,846.444885
z" />

    <path fill="#BFE3F7" opacity="1.000000" stroke="none" d="
M773.192444,873.378479
	C774.779358,873.364319 776.287048,873.740356 777.902222,874.441040
	C776.377502,874.433289 774.745361,874.101013 773.192444,873.378479
z" />
    <path fill="#6568F7" opacity="1.000000" stroke="none" d="
M479.583588,854.619629
	C480.008789,855.763916 480.427948,857.244141 480.797485,859.091248
	C480.357788,857.957214 479.967682,856.456421 479.583588,854.619629
z" />

    <path fill="#6568F7" opacity="1.000000" stroke="none" d="
M477.890198,847.587036
	C478.283539,847.960388 478.647156,848.538025 479.025269,849.314392
	C478.646698,848.939209 478.253571,848.365234 477.890198,847.587036
z" />
    <path fill="#BFE3F7" opacity="1.000000" stroke="none" d="
M782.322388,874.865051
	C782.624146,874.611511 783.258789,874.443481 783.951904,874.533325
	C783.558655,874.844299 783.106934,874.897461 782.322388,874.865051
z" />
    <path fill="#6568F7" opacity="1.000000" stroke="none" d="
M481.019653,579.618164
	C481.185272,579.794495 481.198151,580.055847 481.122742,580.510376
	C481.005157,580.488403 480.911987,580.279541 480.863098,580.060791
	C480.838318,579.950073 480.893463,579.821472 481.019653,579.618164
z" />
    <path fill="#BFE3F7" opacity="1.000000" stroke="none" d="
M773.123413,573.340332
	C773.325378,573.561646 773.434448,574.102478 773.374512,574.805298
	C773.147217,574.531433 773.088867,574.095703 773.123413,573.340332
z" />
    <path fill="#6568F7" opacity="1.000000" stroke="none" d="
M479.663025,852.136597
	C479.775055,852.372314 479.639648,852.550415 479.302460,852.768738
	C478.932556,852.732605 478.846893,852.543823 478.980347,852.207520
	C479.067505,852.134827 479.465027,852.116577 479.663025,852.136597
z" />
    <path fill="#6568F7" opacity="1.000000" stroke="none" d="
M409.002625,662.414551
	C409.046783,662.406433 409.041046,662.523621 409.029633,662.551636
	C409.018219,662.579651 408.958466,662.422729 409.002625,662.414551
z" />
    <path fill="#6568F7" opacity="1.000000" stroke="none" d="
M605.266235,667.813965
	C605.198853,667.836182 605.185974,667.852295 605.198486,667.851440
	C605.210938,667.850647 605.333618,667.791748 605.266235,667.813965
z" />
    <path fill="#BFE3F7" opacity="1.000000" stroke="none" d="
M773.763977,567.270264
	C773.903381,567.511597 773.783752,567.678040 773.484619,567.889954
	C773.150452,567.649353 773.217041,567.402649 773.763977,567.270264
z" />
    <path fill="#BFE3F7" opacity="1.000000" stroke="none" d="
M777.749084,567.091980
	C777.993347,567.165527 777.650208,567.466919 777.650208,567.466919
	C777.650208,567.466919 777.217590,567.410767 777.117554,567.290039
	C777.179932,567.118958 777.342407,567.068665 777.749084,567.091980
z" />
    <path fill="#A44FF7" opacity="1.000000" stroke="none" d="
M412.007416,771.777283
	C411.766754,771.806152 411.637421,771.622803 411.554749,771.420410
	C411.538818,771.381409 411.705963,771.267578 411.948944,771.120361
	C412.117798,771.221069 412.126404,771.389771 412.007416,771.777283
z" />
    <path fill="#BFE3F7" opacity="1.000000" stroke="none" d="
M1124.997559,870.143860
	C1124.250122,869.696899 1123.502808,869.250000 1122.221436,868.456177
	C1104.566040,858.796875 1091.074951,845.576233 1080.183228,829.557068
	C1072.144287,815.657288 1065.679199,801.182007 1063.576660,785.054626
	C1057.695312,739.942627 1069.188110,701.329041 1106.216431,671.664062
	C1107.555298,670.591675 1108.394531,669.895630 1109.233765,669.199585
	C1109.233765,669.199585 1109.113770,669.125000 1109.457520,669.115540
	C1110.609619,668.467224 1111.418213,667.828369 1112.226685,667.189575
	C1112.226685,667.189575 1112.114258,667.133179 1112.469238,667.110718
	C1113.705200,666.444214 1114.586060,665.800171 1115.467041,665.156189
	C1115.933594,664.981079 1116.400146,664.805969 1117.315430,664.338013
	C1120.043701,662.755676 1122.323364,661.466187 1124.602905,660.176697
	C1125.960205,659.658936 1127.317383,659.141174 1128.854492,658.365540
	C1141.991699,653.206238 1155.302856,649.802490 1169.201416,649.348816
	C1187.695923,648.745056 1205.345459,652.205322 1222.315186,661.402466
	C1237.398804,669.566833 1248.563721,680.940125 1258.246948,694.161987
	C1277.679443,720.695740 1275.631226,751.070496 1274.753784,781.996155
	C1223.170410,781.996155 1171.772095,781.996155 1119.738892,781.996155
	C1124.547607,803.472961 1135.830322,819.400818 1155.833008,826.565369
	C1188.022217,838.094788 1210.781128,824.317383 1226.244995,796.830383
	C1242.869873,802.511230 1258.810181,807.958191 1274.869873,813.445862
	C1265.059326,834.118469 1252.089111,851.883118 1232.519653,864.175232
	C1231.483887,864.825806 1230.826782,866.079407 1229.707764,867.030396
	C1229.213013,867.314819 1229.003906,867.621216 1228.428467,867.932312
	C1225.333496,869.174683 1222.604858,870.412292 1219.512695,871.749146
	C1214.433594,873.608643 1209.717773,875.368835 1204.612305,877.201172
	C1191.480347,878.897949 1178.737915,880.522583 1165.995605,882.147217
	C1165.995605,882.147217 1165.580078,881.988403 1165.275146,881.690857
	C1164.650269,881.289368 1164.330078,881.185425 1164.010010,881.081421
	C1163.843628,881.024170 1163.677368,880.966919 1162.916504,880.796509
	C1149.225952,879.487976 1136.957520,875.362244 1124.997559,870.143860
M1180.271362,699.030334
	C1173.166504,699.373657 1165.874512,698.811951 1158.992432,700.233826
	C1140.032959,704.151184 1122.797241,723.313843 1121.644287,740.225220
	C1154.073364,740.225220 1186.532593,740.225220 1219.088379,740.225220
	C1215.848145,719.413879 1202.613770,703.082458 1180.271362,699.030334
z" />
    <path fill="#BFE3F7" opacity="1.000000" stroke="none" d="
M1021.437012,874.761230
	C1022.229065,874.116638 1023.452698,873.125000 1024.711914,873.077576
	C1028.544800,872.933105 1030.165405,871.028748 1029.984741,867.371033
	C1029.681885,861.239197 1029.046875,855.109802 1029.042603,848.979126
	C1028.980469,758.482666 1029.018555,667.986267 1028.919678,577.489868
	C1028.916138,574.271484 1027.746460,571.054321 1027.057251,567.457825
	C1028.147827,567.019775 1029.301270,566.960571 1031.094360,566.868469
	C1031.094360,669.077698 1031.094360,771.109558 1030.815918,873.659912
	C1030.360718,874.286377 1030.211548,874.424072 1030.089722,874.591553
	C1027.354736,874.676331 1024.619873,874.761108 1021.437012,874.761230
z" />

    <path fill="#BFE3F7" opacity="1.000000" stroke="none" d="
M1023.537720,566.977234
	C1023.414062,567.351624 1022.828918,567.879761 1022.245605,567.877747
	C1007.396362,567.827148 992.547424,567.721008 977.359680,567.391724
	C992.373047,567.067261 1007.725098,566.975586 1023.537720,566.977234
z" />

    <path fill="#BDE5FC" opacity="1.000000" stroke="none" d="
M1030.292969,874.678223
	C1030.211548,874.424072 1030.360718,874.286377 1030.675537,874.112915
	C1030.955566,874.396362 1030.849609,874.635559 1030.292969,874.678223
z" />
    <path fill="#BFE3F7" opacity="1.000000" stroke="none" d="
M1641.084229,874.682617
	C1626.372559,853.001770 1611.660767,831.320862 1596.593750,809.116394
	C1595.122803,811.075134 1594.062744,812.486694 1592.888672,814.210449
	C1588.600342,820.751831 1584.532837,827.056152 1580.223511,833.190491
	C1575.193237,840.351135 1569.878540,847.311584 1564.824585,854.455994
	C1560.623535,860.394775 1556.657227,866.499146 1552.496826,872.467285
	C1551.795898,873.472961 1550.637207,874.159546 1548.886475,874.976685
	C1544.389771,875.001892 1540.696533,875.044006 1537.003296,875.086060
	C1534.958618,875.027832 1532.913940,874.969604 1529.984863,874.917480
	C1525.731323,874.983459 1522.362183,875.043457 1518.992920,875.103455
	C1517.604248,875.051270 1516.215454,874.999146 1514.416870,875.028076
	C1511.302124,875.058289 1508.597412,875.007324 1505.448242,875.032227
	C1498.168579,875.108032 1491.333252,875.108032 1483.642212,875.108032
	C1484.788208,873.847229 1485.280762,873.305237 1486.211060,872.351196
	C1487.157715,871.334656 1487.666504,870.730103 1488.175293,870.125549
	C1488.175293,870.125549 1488.065918,870.062744 1488.386475,869.969727
	C1489.231812,868.953979 1489.756592,868.031372 1490.281372,867.108765
	C1491.535278,865.422180 1492.789062,863.735596 1494.387939,861.538818
	C1496.628296,858.067322 1498.523438,855.106079 1500.418701,852.144836
	C1501.986206,850.026733 1503.553833,847.908630 1505.462158,845.329407
	C1506.133423,844.245239 1506.463867,843.622192 1506.794312,842.999207
	C1506.794312,842.999207 1507.105469,842.765747 1507.420410,842.392578
	C1509.945679,838.724609 1512.155884,835.429810 1514.365967,832.135010
	C1518.821045,825.771545 1523.276245,819.408081 1528.089600,812.529419
	C1537.200928,799.286560 1545.953369,786.558350 1554.707520,773.831421
	C1560.695068,765.126648 1560.877808,765.002075 1554.833862,756.242554
	C1540.690918,735.745178 1526.356201,715.380066 1512.099121,694.961365
	C1511.358398,693.710022 1510.617676,692.458679 1509.496704,690.716553
	C1507.802979,688.411926 1506.489502,686.598083 1505.176025,684.784302
	C1505.176025,684.784302 1505.119019,684.891479 1505.088623,684.555237
	C1504.401001,683.403687 1503.743652,682.588379 1503.086426,681.773071
	C1502.314453,680.486572 1501.542480,679.200134 1500.461792,677.497192
	C1499.761108,676.614624 1499.369141,676.148438 1498.977173,675.682190
	C1498.549316,674.898132 1498.121460,674.114075 1497.347046,672.895813
	C1496.541626,671.903076 1496.082764,671.344543 1495.624023,670.785950
	C1492.728760,666.452698 1489.833618,662.119446 1486.403931,656.986328
	C1488.798584,656.986328 1490.487915,656.986328 1492.590088,656.905640
	C1508.499512,656.908142 1523.995972,656.991333 1539.913086,656.992554
	C1543.936279,657.013000 1547.538574,657.115356 1551.817871,657.207031
	C1552.669189,657.164001 1552.843506,657.131531 1553.017822,657.099121
	C1558.420776,664.349426 1563.886108,671.554382 1569.201294,678.868408
	C1571.997925,682.716614 1574.532227,686.755432 1577.490967,690.898926
	C1584.226685,700.544006 1590.656128,709.998413 1597.433228,719.963745
	C1605.223022,708.711731 1612.695435,697.975098 1620.105957,687.195923
	C1626.318237,678.159729 1632.570068,669.146545 1638.551514,659.958618
	C1640.046021,657.663025 1641.570923,657.051636 1644.160034,657.060242
	C1663.796875,657.125854 1683.434082,657.025757 1703.534424,656.901794
	C1704.960327,656.976868 1705.922974,657.127319 1706.350952,657.194214
	C1682.252197,692.150085 1658.092773,727.193970 1633.551636,762.780396
	C1634.601318,766.012146 1635.774292,768.881836 1637.505615,771.361633
	C1649.571411,788.643250 1661.752686,805.844116 1673.896973,823.070862
	C1673.896973,823.070862 1673.968628,823.042664 1674.021606,823.406006
	C1681.137573,834.053467 1688.073975,844.427795 1695.308838,854.589661
	C1700.027710,861.217896 1705.179810,867.537720 1710.137817,873.995728
	C1709.913818,874.280212 1709.689697,874.564697 1708.762695,874.904907
	C1685.734497,874.867920 1663.409424,874.775330 1641.084229,874.682617
z" />
    <path fill="#BFE3F7" opacity="1.000000" stroke="none" d="
M1431.435059,874.983643
	C1423.251343,875.070740 1415.449829,875.070740 1407.338135,875.070740
	C1407.227905,873.336914 1407.077271,872.067566 1407.076538,870.798157
	C1407.039673,801.316162 1407.006836,731.834229 1407.037842,662.352234
	C1407.038696,660.568420 1407.755127,658.784851 1408.568115,656.908813
	C1426.600952,656.919861 1444.203613,656.994995 1461.805298,657.172974
	C1463.457275,657.189636 1465.102661,657.855286 1466.808228,659.070679
	C1466.934082,668.946777 1467.002808,677.971863 1467.071533,686.996948
	C1467.009644,712.052307 1466.946045,737.107727 1466.886963,762.163086
	C1466.871216,768.801758 1466.869019,775.440430 1466.874390,783.000366
	C1466.946899,788.947205 1467.005615,793.972778 1467.064331,798.998291
	C1466.984741,823.361084 1466.905273,847.723816 1466.867432,872.791443
	C1466.938721,873.665161 1466.968506,873.834106 1466.998291,874.002991
	C1466.998291,874.002991 1466.673340,874.341553 1466.615479,874.568970
	C1458.346558,874.822144 1450.135376,874.847961 1441.464111,874.966064
	C1437.941650,875.004456 1434.879517,874.950500 1431.435059,874.983643
z" />
    <path fill="#BFE3F7" opacity="1.000000" stroke="none" d="
M1432.139526,621.689087
	C1416.700806,618.769104 1406.339844,609.923706 1401.862427,594.842407
	C1395.712402,574.127075 1409.220825,552.890625 1431.084473,549.833740
	C1451.722534,546.948181 1469.140991,560.332642 1473.262085,578.224548
	C1474.210083,582.339844 1473.739502,586.782043 1473.951538,591.538147
	C1471.720703,596.755737 1469.459961,601.509033 1466.767456,606.722412
	C1465.475586,608.757935 1464.615601,610.333313 1463.755615,611.908569
	C1463.417358,611.872253 1463.157349,611.997742 1462.582031,612.547852
	C1460.845093,613.743469 1459.501709,614.676270 1458.158325,615.609009
	C1457.795410,615.781738 1457.432495,615.954346 1456.642334,616.411255
	C1455.113159,617.390259 1454.011353,618.084961 1452.909546,618.779663
	C1452.366577,618.901978 1451.823486,619.024353 1450.696777,619.408691
	C1448.012817,620.292725 1445.912476,620.914734 1443.452881,621.534546
	C1442.397339,621.703430 1441.701050,621.874573 1440.591187,621.975586
	C1438.783447,621.954834 1437.389282,622.004272 1435.620361,621.943481
	C1434.210205,621.785278 1433.174927,621.737183 1432.139526,621.689087
z" />
    <path fill="#BFE3F7" opacity="1.000000" stroke="none" d="
M836.313599,694.263367
	C879.988953,693.920227 923.984497,693.843018 968.442383,693.749207
	C967.551941,694.154846 966.199768,694.943848 964.846375,694.945923
	C922.915955,695.009521 880.985474,694.998901 839.054993,694.975464
	C838.247864,694.975037 837.440796,694.684509 836.313599,694.263367
z" />
    <path fill="#5D50F6" opacity="1.000000" stroke="none" d="
M415.008057,674.412598
	C419.976471,669.375427 425.035126,664.696350 430.051727,659.972656
	C447.003296,644.010864 464.834686,628.769958 474.310303,606.614258
	C475.963776,602.748230 477.445862,598.808899 479.015839,594.500000
	C481.450104,593.023438 482.948792,593.483765 483.669891,596.335938
	C485.489685,603.533508 487.258057,610.760437 489.505463,617.829895
	C493.523895,630.470520 498.092010,642.882568 507.872406,652.519348
	C508.657532,653.292908 508.987122,654.528931 509.755859,656.127014
	C510.009888,657.163391 510.036407,657.622742 510.062927,658.082153
	C510.062897,658.082153 510.017120,658.026611 509.808960,658.126221
	C509.413788,658.518799 509.226776,658.811768 509.039795,659.104736
	C509.039764,659.104736 509.071838,659.009827 508.833191,659.161377
	C508.408691,659.893616 508.222870,660.474365 508.036987,661.055115
	C508.036987,661.055115 508.000092,661.007629 507.800842,661.124756
	C507.406403,661.518738 507.211243,661.795532 507.016052,662.072327
	C507.016052,662.072327 507.041718,662.008423 506.830078,662.140503
	C506.451141,662.574402 506.283875,662.876160 506.116577,663.177917
	C506.116577,663.177917 506.056976,663.120605 505.854156,663.201477
	C505.445557,663.553284 505.239777,663.824219 505.033966,664.095154
	C505.033966,664.095154 505.086914,664.042725 504.755676,664.105225
	C503.988525,665.151550 503.552582,666.135498 503.116638,667.119385
	C503.116638,667.119385 503.048401,667.077026 502.845337,667.176208
	C502.453918,667.569031 502.265503,667.862671 502.077087,668.156311
	C502.077087,668.156311 502.063934,668.066956 501.864502,668.180969
	C501.479279,668.595337 501.293549,668.895630 501.107788,669.195984
	C501.107788,669.195984 501.094421,669.099304 500.889374,669.192017
	C500.470337,669.563721 500.256348,669.842712 500.042358,670.121704
	C500.042358,670.121704 500.023132,670.045105 499.828796,670.161621
	C499.441650,670.567444 499.248810,670.856750 499.055969,671.146118
	C499.055969,671.146118 499.058716,671.037903 498.845154,671.195679
	C498.438934,671.913818 498.246216,672.474243 498.053528,673.034668
	C498.053558,673.034668 498.006134,673.016052 497.670715,673.054688
	C496.309540,674.473267 495.283722,675.853210 494.257935,677.233154
	C494.257904,677.233154 494.181458,677.198364 493.945801,677.265076
	C493.551025,677.654663 493.391907,677.977600 493.232788,678.300476
	C493.232758,678.300476 493.205963,678.196899 492.982056,678.277710
	C492.596558,678.684631 492.434998,679.010803 492.273438,679.336975
	C492.273438,679.336975 492.353363,679.349365 491.993408,679.289673
	C490.230042,680.947693 488.826630,682.665405 487.423218,684.383118
	C487.423218,684.383118 487.386078,684.380920 487.095398,684.385986
	C486.679138,684.720581 486.553558,685.050171 486.428009,685.379700
	C486.428009,685.379700 486.293945,685.426025 486.051361,685.438354
	C485.557770,685.981689 485.306763,686.512756 485.055756,687.043823
	C485.055756,687.043823 485.010071,687.020325 484.809082,687.140747
	C484.333038,687.466248 484.141602,687.731750 484.033813,688.057556
	C484.033813,688.057556 484.030365,687.998291 483.718079,688.057007
	C482.955872,688.759094 482.506012,689.402405 482.056152,690.045776
	C482.056152,690.045776 482.013794,690.024902 481.811340,690.141968
	C481.333984,690.461487 481.143188,690.724976 481.036469,691.049316
	C481.036469,691.049316 481.000000,691.000000 480.805237,691.127441
	C480.335510,691.453247 480.145020,691.713440 480.039032,692.035522
	C480.039032,692.035522 479.999420,692.021179 479.670837,692.055908
	C478.580200,693.069519 477.818176,694.048401 477.056152,695.027283
	C477.056152,695.027283 477.026489,695.003235 476.813171,695.129761
	C476.329742,695.453186 476.143219,695.710632 476.040283,696.028564
	C476.040283,696.028564 476.006622,696.022095 475.703735,696.060059
	C475.082153,696.541809 474.763458,696.985596 474.444794,697.429321
	C474.444794,697.429321 474.389984,697.427307 474.097290,697.412048
	C473.669647,697.722595 473.534698,698.048401 473.399719,698.374207
	C473.399719,698.374207 473.452057,698.517395 473.062805,698.410095
	C471.220001,699.952637 469.766449,701.602478 468.312927,703.252258
	C468.312897,703.252258 468.203186,703.255188 467.945068,703.272827
	C467.471069,703.556335 467.255188,703.822266 467.039307,704.088196
	C467.039307,704.088196 467.016235,704.021667 466.811157,704.126038
	C466.411652,704.515076 466.217224,704.799805 466.022766,705.084473
	C466.022736,705.084473 466.015137,705.015015 465.810760,705.125488
	C465.411346,705.518372 465.216309,705.800781 465.021271,706.083252
	C465.021271,706.083252 465.013702,706.014038 464.809082,706.125000
	C464.408966,706.519470 464.213531,706.802979 464.018066,707.086426
	C464.018066,707.086426 464.013367,707.015198 463.812164,707.128052
	C463.412872,707.522644 463.214813,707.804321 463.016724,708.085999
	C463.016693,708.085999 463.014679,708.014221 462.811737,708.126221
	C462.410492,708.521729 462.212189,708.805176 462.013855,709.088562
	C462.013855,709.088562 462.008759,709.012634 461.815063,709.132080
	C461.418457,709.529419 461.215515,709.807312 461.012573,710.085205
	C461.012604,710.085205 461.010803,710.011353 460.815247,710.131714
	C460.416016,710.530579 460.212341,710.809021 460.008667,711.087402
	C460.008636,711.087402 460.004669,711.008057 459.817078,711.134644
	C459.421936,711.535034 459.214386,711.808838 459.006836,712.082581
	C459.006836,712.082581 459.006500,712.006226 458.813904,712.128052
	C458.415710,712.525085 458.210114,712.800293 458.004517,713.075439
	C458.004517,713.075439 458.000305,713.003540 457.815826,713.134399
	C457.420959,713.532715 457.210602,713.800171 457.000183,714.067627
	C457.000183,714.067627 456.998596,713.998840 456.812897,714.131592
	C456.418365,714.532227 456.209503,714.800110 456.000641,715.068054
	C456.000641,715.068054 455.998749,714.999084 455.813599,715.133301
	C455.419769,715.536621 455.211090,715.805725 455.002411,716.074829
	C455.002411,716.074829 454.996704,716.001282 454.826660,716.146606
	C454.438721,716.550720 454.220825,716.809448 454.002930,717.068237
	C454.002930,717.068237 454.000061,716.999939 453.824982,717.150452
	C453.431335,717.562683 453.212769,717.824341 452.994202,718.086060
	C452.994202,718.086060 453.027679,718.013794 452.709900,718.021545
	C451.261932,718.310303 450.131744,718.591309 449.001587,718.872314
	C444.660400,713.757507 440.076233,708.826782 436.031494,703.487366
	C428.874359,694.039429 422.045319,684.342834 415.008057,674.412598
z" />
    <path fill="#AA69F8" opacity="1.000000" stroke="none" d="
M449.148254,719.181763
	C450.131744,718.591309 451.261932,718.310303 452.745239,718.039795
	C452.771484,718.790771 452.444580,719.531311 452.143188,720.588013
	C451.210785,720.433167 450.252838,719.962219 449.148254,719.181763
z" />
    <path fill="#AA69F8" opacity="1.000000" stroke="none" d="
M459.146729,728.135803
	C459.324921,728.089294 459.634949,728.269348 460.030121,728.714539
	C459.836365,728.773865 459.557465,728.568176 459.146729,728.135803
z" />
    <path fill="#AA69F8" opacity="1.000000" stroke="none" d="
M464.218506,733.018555
	C464.424683,732.951904 464.773682,733.158569 465.260559,733.646545
	C465.052765,733.715881 464.707031,733.503906 464.218506,733.018555
z" />
    <path fill="#AA69F8" opacity="1.000000" stroke="none" d="
M463.205200,732.016357
	C463.419312,731.947327 463.748169,732.140503 464.167908,732.615417
	C463.945801,732.690979 463.632874,732.484802 463.205200,732.016357
z" />
    <path fill="#AA69F8" opacity="1.000000" stroke="none" d="
M462.181641,731.060181
	C462.384857,730.992249 462.717651,731.173950 463.147552,731.632385
	C462.933472,731.709412 462.622345,731.509644 462.181641,731.060181
z" />
    <path fill="#AA69F8" opacity="1.000000" stroke="none" d="
M461.164185,730.092529
	C461.355682,730.035217 461.680359,730.217346 462.097534,730.672607
	C461.892456,730.741211 461.594879,730.536621 461.164185,730.092529
z" />
    <path fill="#AA69F8" opacity="1.000000" stroke="none" d="
M460.151917,729.119873
	C460.342346,729.064148 460.664032,729.241333 461.066040,729.692261
	C460.858643,729.761597 460.570923,729.557129 460.151917,729.119873
z" />
    <path fill="#AA69F8" opacity="1.000000" stroke="none" d="
M458.142365,727.150146
	C458.318390,727.104736 458.625488,727.281006 459.011841,727.720886
	C458.818542,727.780334 458.545990,727.576111 458.142365,727.150146
z" />
    <path fill="#AA69F8" opacity="1.000000" stroke="none" d="
M457.139130,726.163269
	C457.308014,726.122925 457.608276,726.299744 457.991272,726.732422
	C457.806183,726.785767 457.538361,726.583130 457.139130,726.163269
z" />
    <path fill="#AA69F8" opacity="1.000000" stroke="none" d="
M456.137909,725.139282
	C456.317261,725.097656 456.618500,725.280090 456.985535,725.727295
	C456.787476,725.782532 456.523621,725.572998 456.137909,725.139282
z" />
    <path fill="#AA69F8" opacity="1.000000" stroke="none" d="
M455.142395,724.138184
	C455.317780,724.096008 455.620941,724.278748 456.004578,724.723328
	C455.813354,724.777832 455.541748,724.570496 455.142395,724.138184
z" />
    <path fill="#AA69F8" opacity="1.000000" stroke="none" d="
M454.141663,723.145508
	C454.321320,723.098816 454.628448,723.276428 455.010620,723.719360
	C454.813507,723.779663 454.541290,723.574707 454.141663,723.145508
z" />
    <path fill="#AA69F8" opacity="1.000000" stroke="none" d="
M453.141785,722.143188
	C453.314240,722.102661 453.614594,722.285645 453.997925,722.727478
	C453.810516,722.779785 453.540100,722.573181 453.141785,722.143188
z" />
    <path fill="#AA69F8" opacity="1.000000" stroke="none" d="
M452.162354,721.064392
	C452.349640,721.028503 452.646942,721.236023 453.011414,721.715088
	C452.809845,721.760376 452.541077,721.534058 452.162354,721.064392
z" />
    <path fill="#AA69F8" opacity="1.000000" stroke="none" d="
M510.372925,657.969666
	C510.036407,657.622742 510.009888,657.163391 510.002655,656.359497
	C510.306183,656.042542 510.590424,656.070007 511.302551,656.143555
	C511.381287,656.745544 511.032104,657.301392 510.372925,657.969666
z" />
    <path fill="#BFE3F7" opacity="1.000000" stroke="none" d="
M1356.007935,566.750122
	C1358.023438,566.844910 1360.038818,566.939636 1362.470459,567.153809
	C1362.909424,653.581604 1362.932861,739.890015 1362.954346,826.198486
	C1362.958374,842.178833 1362.954834,858.159241 1362.954834,874.893127
	C1346.101807,874.893127 1329.512207,874.893127 1312.462646,874.986938
	C1309.848511,875.080688 1307.694580,875.080688 1305.195435,875.080688
	C1305.195435,772.408203 1305.195435,669.944214 1305.195435,566.861084
	C1315.551514,566.861084 1325.808594,566.861084 1336.924194,566.869751
	C1338.858154,566.825562 1339.933472,566.772766 1341.008911,566.720032
	C1344.368530,566.780945 1347.728027,566.841919 1351.936157,566.909424
	C1353.859131,566.860718 1354.933472,566.805420 1356.007935,566.750122
z" />
    <path fill="#6568F7" opacity="1.000000" stroke="none" d="
M468.626068,703.172546
	C469.766449,701.602478 471.220001,699.952637 473.014313,698.468994
	C471.883148,700.121033 470.411194,701.606934 468.626068,703.172546
z" />
    <path fill="#6568F7" opacity="1.000000" stroke="none" d="
M487.740723,684.328491
	C488.826630,682.665405 490.230042,680.947693 491.991211,679.330078
	C490.918762,681.044678 489.488495,682.659241 487.740723,684.328491
z" />
    <path fill="#6568F7" opacity="1.000000" stroke="none" d="
M494.559814,677.131836
	C495.283722,675.853210 496.309540,674.473267 497.687744,673.073975
	C496.980652,674.379883 495.921143,675.705200 494.559814,677.131836
z" />
    <path fill="#8254F5" opacity="1.000000" stroke="none" d="
M503.414429,666.996826
	C503.552582,666.135498 503.988525,665.151550 504.779846,664.133606
	C504.660858,665.024475 504.186554,665.949402 503.414429,666.996826
z" />
    <path fill="#6568F7" opacity="1.000000" stroke="none" d="
M477.349182,694.928589
	C477.818176,694.048401 478.580200,693.069519 479.685303,692.072388
	C479.232971,692.979370 478.437592,693.904663 477.349182,694.928589
z" />
    <path fill="#6568F7" opacity="1.000000" stroke="none" d="
M482.337738,689.957275
	C482.506012,689.402405 482.955872,688.759094 483.729614,688.085754
	C483.575378,688.660156 483.097351,689.264465 482.337738,689.957275
z" />
    <path fill="#6568F7" opacity="1.000000" stroke="none" d="
M474.723572,697.393188
	C474.763458,696.985596 475.082153,696.541809 475.711670,696.075439
	C475.682465,696.487549 475.342407,696.922241 474.723572,697.393188
z" />
    <path fill="#6568F7" opacity="1.000000" stroke="none" d="
M485.328522,686.947388
	C485.306763,686.512756 485.557770,685.981689 486.121979,685.444824
	C486.157196,685.909729 485.879242,686.380371 485.328522,686.947388
z" />
    <path fill="#AA69F8" opacity="1.000000" stroke="none" d="
M508.324707,660.914429
	C508.222870,660.474365 508.408691,659.893616 508.879639,659.180054
	C508.980652,659.622803 508.796539,660.198242 508.324707,660.914429
z" />
    <path fill="#6568F7" opacity="1.000000" stroke="none" d="
M498.334961,672.907471
	C498.246216,672.474243 498.438934,671.913818 498.898926,671.202026
	C498.982941,671.627197 498.799683,672.203796 498.334961,672.907471
z" />
    <path fill="#AA69F8" opacity="1.000000" stroke="none" d="
M462.309326,709.050903
	C462.212189,708.805176 462.410492,708.521729 462.847626,708.127502
	C462.925903,708.348938 462.765320,708.681152 462.309326,709.050903
z" />
    <path fill="#AA69F8" opacity="1.000000" stroke="none" d="
M463.316040,708.062927
	C463.214813,707.804321 463.412872,707.522644 463.847839,707.128723
	C463.928253,707.357605 463.771790,707.698730 463.316040,708.062927
z" />
    <path fill="#AA69F8" opacity="1.000000" stroke="none" d="
M464.321838,707.066589
	C464.213531,706.802979 464.408966,706.519470 464.843719,706.128296
	C464.930511,706.362671 464.778046,706.704712 464.321838,707.066589
z" />
    <path fill="#AA69F8" opacity="1.000000" stroke="none" d="
M465.327515,706.075317
	C465.216309,705.800781 465.411346,705.518372 465.845520,705.128784
	C465.934326,705.370239 465.784058,705.718750 465.327515,706.075317
z" />
    <path fill="#AA69F8" opacity="1.000000" stroke="none" d="
M466.320068,705.077026
	C466.217224,704.799805 466.411652,704.515076 466.846130,704.121948
	C466.929901,704.365479 466.773621,704.717529 466.320068,705.077026
z" />
    <path fill="#AA69F8" opacity="1.000000" stroke="none" d="
M461.302277,710.047058
	C461.215515,709.807312 461.418457,709.529419 461.853088,709.130737
	C461.920532,709.342896 461.756256,709.675903 461.302277,710.047058
z" />
    <path fill="#6568F7" opacity="1.000000" stroke="none" d="
M467.329590,704.061768
	C467.255188,703.822266 467.471069,703.556335 467.939270,703.218262
	C468.001007,703.442444 467.810455,703.738892 467.329590,704.061768
z" />
    <path fill="#AA69F8" opacity="1.000000" stroke="none" d="
M460.294159,711.034058
	C460.212341,710.809021 460.416016,710.530579 460.852203,710.132080
	C460.916321,710.334900 460.747986,710.657837 460.294159,711.034058
z" />
    <path fill="#6568F7" opacity="1.000000" stroke="none" d="
M473.679504,698.352783
	C473.534698,698.048401 473.669647,697.722595 474.091675,697.385254
	C474.238922,697.692932 474.099091,698.012146 473.679504,698.352783
z" />
    <path fill="#AA69F8" opacity="1.000000" stroke="none" d="
M459.287659,712.030029
	C459.214386,711.808838 459.421936,711.535034 459.856750,711.133362
	C459.912140,711.329468 459.740295,711.653442 459.287659,712.030029
z" />
    <path fill="#8254F5" opacity="1.000000" stroke="none" d="
M506.413635,663.143860
	C506.283875,662.876160 506.451141,662.574402 506.857361,662.161560
	C506.967743,662.403564 506.839203,662.756714 506.413635,663.143860
z" />
    <path fill="#8254F5" opacity="1.000000" stroke="none" d="
M505.324402,664.053223
	C505.239777,663.824219 505.445557,663.553284 505.885956,663.175049
	C505.951996,663.382324 505.783417,663.696838 505.324402,664.053223
z" />
    <path fill="#6568F7" opacity="1.000000" stroke="none" d="
M476.290680,695.967041
	C476.143219,695.710632 476.329742,695.453186 476.816101,695.148315
	C476.868622,695.328674 476.704834,695.617065 476.290680,695.967041
z" />
    <path fill="#6568F7" opacity="1.000000" stroke="none" d="
M480.295685,691.977539
	C480.145020,691.713440 480.335510,691.453247 480.829926,691.145569
	C480.883728,691.330627 480.718018,691.625061 480.295685,691.977539
z" />
    <path fill="#6568F7" opacity="1.000000" stroke="none" d="
M481.293488,690.986511
	C481.143188,690.724976 481.333984,690.461487 481.829346,690.147095
	C481.883362,690.331299 481.716949,690.627502 481.293488,690.986511
z" />
    <path fill="#6568F7" opacity="1.000000" stroke="none" d="
M484.293518,687.995605
	C484.141602,687.731750 484.333038,687.466248 484.829407,687.147644
	C484.884857,687.334045 484.719025,687.633850 484.293518,687.995605
z" />
    <path fill="#6568F7" opacity="1.000000" stroke="none" d="
M486.706177,685.349121
	C486.553558,685.050171 486.679138,684.720581 487.091797,684.367737
	C487.247406,684.669128 487.115906,684.993774 486.706177,685.349121
z" />
    <path fill="#6568F7" opacity="1.000000" stroke="none" d="
M492.560547,679.282471
	C492.434998,679.010803 492.596558,678.684631 493.034912,678.285706
	C493.157043,678.551270 493.002350,678.889587 492.560547,679.282471
z" />
    <path fill="#8254F5" opacity="1.000000" stroke="none" d="
M501.401215,669.149292
	C501.293549,668.895630 501.479279,668.595337 501.909668,668.181274
	C502.001038,668.412598 501.847839,668.757629 501.401215,669.149292
z" />
    <path fill="#6568F7" opacity="1.000000" stroke="none" d="
M493.520203,678.239807
	C493.391907,677.977600 493.551025,677.654663 493.971436,677.231812
	C494.091034,677.480957 493.949310,677.830078 493.520203,678.239807
z" />
    <path fill="#8254F5" opacity="1.000000" stroke="none" d="
M502.369019,668.111755
	C502.265503,667.862671 502.453918,667.569031 502.882324,667.160522
	C502.968506,667.386169 502.814697,667.726685 502.369019,668.111755
z" />
    <path fill="#8254F5" opacity="1.000000" stroke="none" d="
M499.332520,671.078613
	C499.248810,670.856750 499.441650,670.567444 499.867767,670.155212
	C499.937073,670.358582 499.773102,670.684814 499.332520,671.078613
z" />
    <path fill="#8254F5" opacity="1.000000" stroke="none" d="
M500.330566,670.071655
	C500.256348,669.842712 500.470337,669.563721 500.938019,669.195557
	C501.000732,669.411438 500.809753,669.716492 500.330566,670.071655
z" />
    <path fill="#AA69F8" opacity="1.000000" stroke="none" d="
M509.354279,659.125732
	C509.226776,658.811768 509.413788,658.518799 509.844666,658.122192
	C509.948639,658.394592 509.808685,658.770691 509.354279,659.125732
z" />
    <path fill="#AA69F8" opacity="1.000000" stroke="none" d="
M458.282928,713.015930
	C458.210114,712.800293 458.415710,712.525085 458.852051,712.128662
	C458.908966,712.323669 458.735138,712.640076 458.282928,713.015930
z" />
    <path fill="#AA69F8" opacity="1.000000" stroke="none" d="
M507.288879,662.019165
	C507.211243,661.795532 507.406403,661.518738 507.830872,661.126465
	C507.893982,661.329346 507.727814,661.647705 507.288879,662.019165
z" />
    <path fill="#AA69F8" opacity="1.000000" stroke="none" d="
M453.259766,718.009521
	C453.212769,717.824341 453.431335,717.562683 453.859131,717.151245
	C453.887390,717.311951 453.706360,717.622498 453.259766,718.009521
z" />
    <path fill="#AA69F8" opacity="1.000000" stroke="none" d="
M454.264282,716.985229
	C454.220825,716.809448 454.438721,716.550720 454.863403,716.143494
	C454.888672,716.297424 454.707153,716.599854 454.264282,716.985229
z" />
    <path fill="#AA69F8" opacity="1.000000" stroke="none" d="
M455.271790,716.006958
	C455.211090,715.805725 455.419769,715.536621 455.848114,715.133423
	C455.892273,715.312561 455.716736,715.625793 455.271790,716.006958
z" />
    <path fill="#AA69F8" opacity="1.000000" stroke="none" d="
M456.266724,714.995117
	C456.209503,714.800110 456.418365,714.532227 456.847321,714.131836
	C456.889221,714.307068 456.710999,714.614624 456.266724,714.995117
z" />
</svg>