<?xml version="1.0" encoding="utf-8"?>
<svg viewBox="0 0 32 32" xmlns="http://www.w3.org/2000/svg">
  <path d="M 13.844 3.536 L 12.556 2.464 C 12.197 2.164 11.744 2 11.276 2 L 4 2 C 2.896 2 2 2.895 2 4 L 2 20 C 2 21.105 2.896 22 4 22 L 28 22 C 29.105 22 30 21.105 30 20 L 30 6 C 30 4.895 29.105 4 28 4 L 15.124 4 C 14.657 4 14.204 3.836 13.844 3.536 Z" style="fill: rgb(120, 69, 209);"/>
  <g transform="matrix(0.642857, 0, 0, 0.642857, -12.938392, -12.020456)" style="">
    <path d="M 60.757 40.741 C 60.983 41.028 63.434 44.233 64.103 45.172 C 65.477 47.592 66.454 50.311 66.637 53.185 C 66.761 55.153 66.793 59.143 66.793 59.143 L 61.893 59.143 C 61.893 59.143 61.917 55.476 61.844 53.915 C 61.779 52.541 61.297 50.779 60.742 49.504 C 60.695 49.344 57.579 45.233 57.654 45.087 C 57.764 44.874 53.818 40.402 52.773 39.387 C 52.832 39.217 55.313 32.438 55.429 33.006 C 55.827 34.942 56.724 36.424 57.978 37.79 L 60.757 40.741 Z" style="fill: rgb(185, 138, 238); shape-rendering: crispedges; stroke-linejoin: round; stroke-linecap: round; paint-order: stroke; stroke-width: 0.1px;"/>
    <path d="M 41.051 44.625 C 39.701 42.179 38.986 39.493 38.885 36.62 C 38.822 34.82 38.793 31.143 38.793 31.143 L 43.593 31.143 C 43.593 31.143 43.593 35.143 43.703 36.729 C 43.753 38.032 44.106 39.204 44.381 39.85 C 44.511 40.155 44.747 40.598 44.896 40.884 C 45.467 41.79 47.301 44.474 47.664 44.969 C 47.703 45.187 51.663 49.857 52.786 50.869 C 52.774 50.983 50.113 57.201 50.113 57.201 C 50.106 57.147 50.094 56.956 49.999 56.659 C 49.903 56.416 49.802 56.174 49.712 55.928 C 49.224 54.569 48.449 53.428 47.531 52.413 C 46.714 51.51 45.769 50.528 44.926 49.658 C 44.854 49.584 42.151 46.536 41.346 45.217 L 41.051 44.625 Z" style="fill-rule: nonzero; fill: rgb(185, 138, 238); shape-rendering: crispedges; stroke-linejoin: round; stroke-linecap: round; paint-order: stroke; stroke-width: 0.1px;"/>
    <path d="M 60.743 40.725 C 60.827 40.602 60.935 40.41 61.005 40.241 C 61.409 39.266 61.62 38.185 61.729 37.131 C 61.9 35.463 61.893 31.143 61.893 31.143 L 66.793 31.168 C 66.793 31.143 66.729 36.139 66.554 38.022 C 66.341 40.311 65.594 42.428 64.515 44.391 C 64.379 44.641 64.254 44.85 64.083 45.146 C 63.448 44.25 60.813 40.803 60.743 40.725 Z" style="fill: rgb(110, 112, 246); shape-rendering: crispedges; stroke-linejoin: round; stroke-linecap: round; paint-order: stroke; stroke-width: 0.1px;"/>
    <path d="M 41.332 45.19 C 42.012 46.299 44.678 49.375 44.724 49.429 C 44.285 50.507 44.274 50.555 43.951 51.776 C 43.647 52.921 43.593 54.343 43.593 54.843 C 43.593 56.043 43.593 59.143 43.593 59.143 L 38.793 59.143 C 38.793 59.143 38.832 55.971 38.832 54.348 C 38.832 51.655 39.47 49.088 40.574 46.685 L 41.332 45.19 Z" style="fill: rgb(110, 112, 246); shape-rendering: crispedges; stroke-linejoin: round; stroke-linecap: round; paint-order: stroke; stroke-width: 0.1px;"/>
    <path d="M 57.657 45.054 C 58.175 45.986 60.386 48.913 60.723 49.448 C 60.451 49.724 57.893 52.584 56.959 53.812 C 55.81 55.325 55.367 57.282 55.395 57.173 C 55.428 57.046 53.018 51.353 52.82 50.869 L 57.657 45.054 Z" style="fill: rgb(110, 112, 246); shape-rendering: crispedges; stroke-linejoin: round; stroke-linecap: round; paint-order: stroke; stroke-width: 0.1px;"/>
    <path d="M 52.82 50.868 C 53.024 51.323 55.418 57.027 55.399 57.156 C 55.315 57.706 55.193 58.643 55.193 58.843 C 55.186 59.144 54.893 59.143 54.893 59.143 L 50.593 59.143 C 50.552 59.159 50.322 59.125 50.293 58.843 C 50.244 58.374 50.111 57.249 50.111 57.187 C 50.139 57.131 52.644 51.19 52.785 50.868" style="fill: rgb(136, 116, 232); shape-rendering: crispedges; stroke-linejoin: round; stroke-linecap: round; paint-order: stroke; stroke-width: 0.1px;"/>
    <path d="M 47.59 37.358 C 48.915 35.455 50.047 33.786 50.153 33.102 C 50.231 33.291 52.731 39.352 52.733 39.393 C 52.669 39.267 47.817 44.924 47.705 45.051 C 47.368 44.605 45.474 41.796 44.901 40.896 L 47.59 37.358 Z" style="fill: rgb(110, 112, 246); shape-rendering: crispedges; stroke-linejoin: round; stroke-linecap: round; paint-order: stroke; stroke-width: 0.1px;"/>
    <path d="M 52.859 31.143 C 53.064 31.598 55.456 37.304 55.441 37.435 C 55.379 37.97 55.343 38.648 55.301 38.994 C 55.264 39.292 54.935 39.366 54.694 39.363 L 50.891 39.394 C 50.891 39.394 50.301 39.394 50.301 38.994 C 50.253 38.709 50.153 37.528 50.153 37.466 C 50.18 37.41 52.688 31.465 52.829 31.143 L 52.859 31.143 Z" style="fill: rgb(161, 116, 232); shape-rendering: crispedges; stroke-linejoin: round; stroke-linecap: round; stroke-width: 0.1px; paint-order: stroke;" transform="matrix(-1, 0, 0, -1, 105.59406943457, 70.537000563476)"/>
  </g>
</svg>